# xmcd
#
# Track frame offsets: 
#        150
#        15750
#        32250
#        51712
#        80212
#        96825
#        118237
#        135787
#        155475
#        174112
#        190087
#        208725
#
# Disc length: 3078 seconds
#
# Revision: 2
# Processed by: cddbd v1.5.2PL0 Copyright (c) Steve Scherf et al.
# Submitted via: ExactAudioCopy v0.99pb5
#
DISCID=930c040c
DTITLE=Skip James - Hard Time Killing Floor Blues
DYEAR=2003
DGENRE=Blues
TTITLE0=Hard Time Killing Floor Blues
TTITLE1=Sick Bed Blues
TTITLE2=Washington D.C. Hospital Center Blues
TTITLE3=Devil Got My Woman
TTITLE4=Illinois Blues
TTITLE5=I Don't Want a Woman to Stay Up All Night Long
TTITLE6=Cherry Ball Blues
TTITLE7=Skip's Worried Blues
TTITLE8=Cypress Grove Blues
TTITLE9=Catfish Blues
TTITLE10=Motherless and Fatherless
TTITLE11=All Night Long
EXTD=
EXTT0=
EXTT1=
EXTT2=
EXTT3=
EXTT4=
EXTT5=
EXTT6=
EXTT7=
EXTT8=
EXTT9=
EXTT10=
EXTT11=
PLAYORDER=
